# xmcd CD database file
#
# Track frame offsets:
#	150
#	26887
#	67284
#	99703
#	129904
#	152357
#	188524
#
# Disc length: 2811 seconds
#
# Revision: 0
# Processed by: cddbd v1.5.2PL0 Copyright (c) Steve Scherf et al.
# Submitted via: CDex 1.70beta2
#
DISCID=570af907
DTITLE=Wine Jazz Trio - Live At Fringe Club
DYEAR=2004
DGENRE=Jazz
TTITLE0=La Macina
TTITLE1=Salta che ti passa
TTITLE2=Ninnananna per Alberta
TTITLE3=Il tango della Parmigiana
TTITLE4=Pinocchio Suite
TTITLE5=All the things you are
TTITLE6=Sebastiano da lontano
EXTD=YEAR: 2004
EXTT0=
EXTT1=
EXTT2=
EXTT3=
EXTT4=
EXTT5=
EXTT6=
PLAYORDER=
